<svg preserveAspectRatio="none" overflow="visible" style="display: block;" width="25" height="25" viewBox="0 0 25 25" fill="none" xmlns="http://www.w3.org/2000/svg">
<path id="Vector" opacity="0.5" d="M12.5 0C5.59673 0 0 5.59673 0 12.5C0 19.4033 5.59673 25 12.5 25C19.4033 25 25 19.4033 25 12.5C25 5.59673 19.4033 0 12.5 0ZM12.4349 5.34792C12.6058 5.32932 12.7755 5.38512 12.9022 5.50021C13.029 5.61647 13.0987 5.78156 13.0952 5.95245V11.9048H19.0476C19.2069 11.9025 19.3604 11.9641 19.4743 12.0757C19.5871 12.1885 19.651 12.3408 19.651 12.5001C19.651 12.6594 19.5871 12.8116 19.4743 12.9244C19.3604 13.036 19.2069 13.0976 19.0476 13.0953H13.0952V19.0477C13.0976 19.207 13.0359 19.3604 12.9243 19.4744C12.8116 19.5871 12.6593 19.6511 12.5 19.6511C12.3407 19.6511 12.1884 19.5871 12.0756 19.4744C11.964 19.3604 11.9024 19.207 11.9047 19.0477V13.0953H5.95237C5.79426 13.1023 5.63963 13.0476 5.52338 12.9407C5.40596 12.8349 5.3362 12.6861 5.32923 12.528C5.32226 12.3699 5.3769 12.2152 5.48385 12.099C5.58965 11.9816 5.73846 11.9118 5.89656 11.9048C5.91516 11.9037 5.93376 11.9037 5.95236 11.9048H11.9047V5.95247C11.8978 5.64437 12.128 5.38161 12.4349 5.34792Z" fill="#9CBF5B"/>
</svg>
